{
    "asset" : {
        "generator" : "Khronos glTF Blender I/O v1.3.48",
        "version" : "2.0"
    },
    "scene" : 0,
    "scenes" : [
        {
            "extras" : {
                "archimesh_font_size" : 14
            },
            "name" : "Scene",
            "nodes" : [
                3
            ]
        }
    ],
    "nodes" : [
        {
            "mesh" : 0,
            "name" : "Circle",
            "translation" : [
                -1.3139631748199463,
                -0.020775288343429565,
                0.043515801429748535
            ]
        },
        {
            "mesh" : 1,
            "name" : "Cube.075",
            "translation" : [
                -1.1139631271362305,
                -0.020775198936462402,
                -0.7564840316772461
            ]
        },
        {
            "mesh" : 2,
            "name" : "Cube.087",
            "translation" : [
                -0.5139632821083069,
                -0.02077522873878479,
                0.4435160160064697
            ]
        },
        {
            "children" : [
                0,
                1,
                2
            ],
            "name" : "second-couch",
            "rotation" : [
                -0.0820525735616684,
                0.3963170647621155,
                -0.18539181351661682,
                0.8954496383666992
            ],
            "translation" : [
                1.0456621646881104,
                -0.8511991500854492,
                0.7884766459465027
            ]
        }
    ],
    "materials" : [
        {
            "doubleSided" : true,
            "name" : "Sofa.001",
            "pbrMetallicRoughness" : {}
        }
    ],
    "meshes" : [
        {
            "name" : "Circle.002",
            "primitives" : [
                {
                    "attributes" : {
                        "POSITION" : 0,
                        "NORMAL" : 1,
                        "TEXCOORD_0" : 2
                    },
                    "indices" : 3,
                    "material" : 0
                }
            ]
        },
        {
            "name" : "Cube.044",
            "primitives" : [
                {
                    "attributes" : {
                        "POSITION" : 4,
                        "NORMAL" : 5,
                        "TEXCOORD_0" : 6
                    },
                    "indices" : 7,
                    "material" : 0
                }
            ]
        },
        {
            "name" : "Cube.043",
            "primitives" : [
                {
                    "attributes" : {
                        "POSITION" : 8,
                        "NORMAL" : 9,
                        "TEXCOORD_0" : 10
                    },
                    "indices" : 11,
                    "material" : 0
                }
            ]
        }
    ],
    "accessors" : [
        {
            "bufferView" : 0,
            "componentType" : 5126,
            "count" : 260,
            "max" : [
                0.4869671165943146,
                0.44332268834114075,
                0.37719473242759705
            ],
            "min" : [
                -0.48696720600128174,
                0.03921745717525482,
                -0.37719404697418213
            ],
            "type" : "VEC3"
        },
        {
            "bufferView" : 1,
            "componentType" : 5126,
            "count" : 260,
            "type" : "VEC3"
        },
        {
            "bufferView" : 2,
            "componentType" : 5126,
            "count" : 260,
            "type" : "VEC2"
        },
        {
            "bufferView" : 3,
            "componentType" : 5123,
            "count" : 1536,
            "type" : "SCALAR"
        },
        {
            "bufferView" : 4,
            "componentType" : 5126,
            "count" : 502,
            "max" : [
                1.136020302772522,
                0.847364604473114,
                0.7249869108200073
            ],
            "min" : [
                -1.1499587297439575,
                0.039217475801706314,
                -0.4661448895931244
            ],
            "type" : "VEC3"
        },
        {
            "bufferView" : 5,
            "componentType" : 5126,
            "count" : 502,
            "type" : "VEC3"
        },
        {
            "bufferView" : 6,
            "componentType" : 5126,
            "count" : 502,
            "type" : "VEC2"
        },
        {
            "bufferView" : 7,
            "componentType" : 5123,
            "count" : 2844,
            "type" : "SCALAR"
        },
        {
            "bufferView" : 8,
            "componentType" : 5126,
            "count" : 346,
            "max" : [
                0.5236363410949707,
                0.8469786047935486,
                0.7132664322853088
            ],
            "min" : [
                -0.6483984589576721,
                0.03921743854880333,
                -0.5881662368774414
            ],
            "type" : "VEC3"
        },
        {
            "bufferView" : 9,
            "componentType" : 5126,
            "count" : 346,
            "type" : "VEC3"
        },
        {
            "bufferView" : 10,
            "componentType" : 5126,
            "count" : 346,
            "type" : "VEC2"
        },
        {
            "bufferView" : 11,
            "componentType" : 5123,
            "count" : 1926,
            "type" : "SCALAR"
        }
    ],
    "bufferViews" : [
        {
            "buffer" : 0,
            "byteLength" : 3120,
            "byteOffset" : 0
        },
        {
            "buffer" : 0,
            "byteLength" : 3120,
            "byteOffset" : 3120
        },
        {
            "buffer" : 0,
            "byteLength" : 2080,
            "byteOffset" : 6240
        },
        {
            "buffer" : 0,
            "byteLength" : 3072,
            "byteOffset" : 8320
        },
        {
            "buffer" : 0,
            "byteLength" : 6024,
            "byteOffset" : 11392
        },
        {
            "buffer" : 0,
            "byteLength" : 6024,
            "byteOffset" : 17416
        },
        {
            "buffer" : 0,
            "byteLength" : 4016,
            "byteOffset" : 23440
        },
        {
            "buffer" : 0,
            "byteLength" : 5688,
            "byteOffset" : 27456
        },
        {
            "buffer" : 0,
            "byteLength" : 4152,
            "byteOffset" : 33144
        },
        {
            "buffer" : 0,
            "byteLength" : 4152,
            "byteOffset" : 37296
        },
        {
            "buffer" : 0,
            "byteLength" : 2768,
            "byteOffset" : 41448
        },
        {
            "buffer" : 0,
            "byteLength" : 3852,
            "byteOffset" : 44216
        }
    ],
    "buffers" : [
        {
            "byteLength" : 48068,
            "uri" : "data:application/octet-stream;base64,"
        }
    ]
}
